# xmcd
#
# Track frame offsets:
#	150
#	16525
#	30302
#	47145
#	61700
#	75655
#	90742
#	107205
#	123972
#	139217
#	153725
#	169362
#	186760
#	205170
#	219775
#	236580
#	248707
#	263672
#	275407
#	291705
#	314650
#
# Disc length: 4361 seconds
#
# Revision: 1
# Processed by: cddbd v1.4PL0 Copyright (c) Steve Scherf et al.
# Submitted via: EasyCDDAExtractor 5.0.6
#
DISCID=29110715
DTITLE=Vera Martinova - Vrcholky (Best Of)
DYEAR=1995
DGENRE=Country
TTITLE0=Placou tvoje modry oci
TTITLE1=Strom vanocni
TTITLE2=Dal jen vejdi
TTITLE3=Brzy bude rano
TTITLE4=Maly dum nad skalou
TTITLE5=Az na vrcholky hor
TTITLE6=Rodeo je jako svet
TTITLE7=Toulavy dziny
TTITLE8=Nejsme si cizi
TTITLE9=Pojd se toulat oblohou
TTITLE10=Z nudy sudy valet
TTITLE11=Nerikej, ze jsi zapomnel
TTITLE12=O, pane nas
TTITLE13=Pulnocni slunce
TTITLE14=Jednou jsi cowboy
TTITLE15=Zazracny housle
TTITLE16=My blues
TTITLE17=V sedle je mi lip
TTITLE18=Ja se stavam vodou
TTITLE19=Nika
TTITLE20=Nebe, peklo, raj
EXTD=
EXTT0=
EXTT1=
EXTT2=
EXTT3=
EXTT4=
EXTT5=
EXTT6=
EXTT7=
EXTT8=
EXTT9=
EXTT10=
EXTT11=
EXTT12=
EXTT13=
EXTT14=
EXTT15=
EXTT16=
EXTT17=
EXTT18=
EXTT19=
EXTT20=
PLAYORDER=
